<svg xmlns="http://www.w3.org/2000/svg" width="63" height="63" viewBox="0 0 63 63">
    <g fill="none" fill-rule="nonzero">
        <path fill="#F7931A" d="M62.047 39.134c-4.208 16.88-21.304 27.152-38.185 22.942C6.988 57.868-3.285 40.771.925 23.893 5.132 7.012 22.228-3.262 39.104.947c16.88 4.208 27.152 21.307 22.943 38.187z"/>
        <path fill="#FFF" d="M45.378 27.023c.627-4.192-2.565-6.446-6.93-7.95l1.416-5.679-3.457-.862-1.378 5.53c-.91-.226-1.843-.44-2.77-.652l1.388-5.566-3.455-.861-1.417 5.677c-.752-.171-1.49-.34-2.207-.519l.004-.018-4.768-1.19-.92 3.692s2.566.588 2.511.625c1.4.35 1.654 1.276 1.611 2.01l-1.613 6.47c.097.025.222.06.36.115-.115-.028-.238-.06-.365-.09l-2.261 9.063c-.171.425-.606 1.063-1.584.821.034.05-2.513-.627-2.513-.627l-1.716 3.957 4.498 1.122c.837.21 1.657.429 2.465.636l-1.43 5.744 3.452.861 1.417-5.683c.943.256 1.86.493 2.755.715l-1.412 5.657 3.457.861 1.43-5.733c5.896 1.115 10.328.665 12.194-4.666 1.504-4.293-.075-6.77-3.176-8.384 2.259-.521 3.96-2.007 4.414-5.076zM37.479 38.1c-1.068 4.293-8.296 1.972-10.64 1.39l1.899-7.61c2.343.585 9.858 1.743 8.741 6.22zm1.07-11.138c-.975 3.905-6.991 1.921-8.943 1.435l1.721-6.903c1.952.487 8.237 1.395 7.222 5.468z"/>
    </g>
</svg>
